<svg xmlns="http://www.w3.org/2000/svg" xmlns:xlink="http://www.w3.org/1999/xlink" width="156" zoomAndPan="magnify" viewBox="0 0 116.88 30.000001" height="40" preserveAspectRatio="xMidYMid meet" version="1.2"><defs><clipPath id="25b70c20fb"><path d="M 1.828125 6.765625 L 11 6.765625 L 11 22.007812 L 1.828125 22.007812 Z M 1.828125 6.765625 "/></clipPath><clipPath id="6ef42dc498"><path d="M 2 6.765625 L 10 6.765625 L 10 10 L 2 10 Z M 2 6.765625 "/></clipPath><clipPath id="1a0f483df2"><path d="M 11 6.765625 L 20.699219 6.765625 L 20.699219 22.007812 L 11 22.007812 Z M 11 6.765625 "/></clipPath><clipPath id="aa25a8443c"><path d="M 12 6.765625 L 20 6.765625 L 20 10 L 12 10 Z M 12 6.765625 "/></clipPath><clipPath id="428210d878"><path d="M 108 11 L 114.9375 11 L 114.9375 21 L 108 21 Z M 108 11 "/></clipPath></defs><g id="97ab8c47ef"><g clip-rule="nonzero" clip-path="url(#25b70c20fb)"><path style=" stroke:none;fill-rule:evenodd;fill:#ff914d;fill-opacity:1;" d="M 10.734375 6.765625 L 7.753906 10.507812 L 1.832031 10.835938 L 8.960938 19.996094 L 2.636719 11.105469 L 7.726562 11.15625 L 10.605469 22.007812 C 9.859375 18.285156 9.113281 14.558594 8.367188 10.835938 Z M 10.734375 6.765625 "/></g><g clip-rule="nonzero" clip-path="url(#6ef42dc498)"><path style=" stroke:none;fill-rule:nonzero;fill:#ff914d;fill-opacity:1;" d="M 9.859375 6.765625 L 5.042969 6.765625 L 2.441406 9.996094 L 5.308594 7.097656 Z M 9.859375 6.765625 "/></g><g clip-rule="nonzero" clip-path="url(#1a0f483df2)"><path style=" stroke:none;fill-rule:evenodd;fill:#ff914d;fill-opacity:1;" d="M 11.289062 6.765625 L 14.265625 10.507812 L 20.1875 10.835938 L 13.058594 19.996094 L 19.382812 11.105469 L 14.292969 11.15625 L 11.414062 22.007812 C 12.160156 18.285156 12.90625 14.558594 13.652344 10.835938 Z M 11.289062 6.765625 "/></g><g clip-rule="nonzero" clip-path="url(#aa25a8443c)"><path style=" stroke:none;fill-rule:nonzero;fill:#ff914d;fill-opacity:1;" d="M 12.160156 6.765625 L 16.976562 6.765625 L 19.578125 9.996094 L 16.710938 7.097656 Z M 12.160156 6.765625 "/></g><g style="fill:#000000;fill-opacity:1;"><g transform="translate(22.174363, 17.744936)"><path style="stroke:none" d="M 3.65625 0.125 C 3.082031 0.125 2.570312 0.0546875 2.125 -0.078125 C 1.675781 -0.222656 1.300781 -0.410156 1 -0.640625 C 0.707031 -0.878906 0.484375 -1.132812 0.328125 -1.40625 L 1.234375 -2.5 L 1.375 -2.5 C 1.613281 -2.125 1.925781 -1.828125 2.3125 -1.609375 C 2.695312 -1.398438 3.144531 -1.296875 3.65625 -1.296875 C 4.09375 -1.296875 4.421875 -1.382812 4.640625 -1.5625 C 4.859375 -1.75 4.96875 -2.003906 4.96875 -2.328125 C 4.96875 -2.523438 4.929688 -2.6875 4.859375 -2.8125 C 4.796875 -2.945312 4.679688 -3.0625 4.515625 -3.15625 C 4.347656 -3.25 4.125 -3.332031 3.84375 -3.40625 L 2.78125 -3.640625 C 2.039062 -3.804688 1.488281 -4.085938 1.125 -4.484375 C 0.757812 -4.878906 0.578125 -5.390625 0.578125 -6.015625 C 0.578125 -6.484375 0.691406 -6.894531 0.921875 -7.25 C 1.160156 -7.601562 1.5 -7.875 1.9375 -8.0625 C 2.382812 -8.257812 2.921875 -8.359375 3.546875 -8.359375 C 4.179688 -8.359375 4.722656 -8.273438 5.171875 -8.109375 C 5.628906 -7.941406 6.015625 -7.6875 6.328125 -7.34375 L 5.515625 -6.234375 L 5.375 -6.234375 C 5.144531 -6.484375 4.878906 -6.664062 4.578125 -6.78125 C 4.273438 -6.90625 3.929688 -6.96875 3.546875 -6.96875 C 3.097656 -6.96875 2.753906 -6.890625 2.515625 -6.734375 C 2.285156 -6.578125 2.171875 -6.359375 2.171875 -6.078125 C 2.171875 -5.816406 2.253906 -5.609375 2.421875 -5.453125 C 2.585938 -5.296875 2.867188 -5.175781 3.265625 -5.09375 L 4.359375 -4.875 C 5.148438 -4.707031 5.726562 -4.421875 6.09375 -4.015625 C 6.457031 -3.609375 6.640625 -3.082031 6.640625 -2.4375 C 6.640625 -1.914062 6.523438 -1.460938 6.296875 -1.078125 C 6.078125 -0.703125 5.742188 -0.40625 5.296875 -0.1875 C 4.847656 0.0195312 4.300781 0.125 3.65625 0.125 Z M 3.65625 0.125 "/></g></g><g style="fill:#000000;fill-opacity:1;"><g transform="translate(29.258631, 17.744936)"><path style="stroke:none" d="M 2.421875 0.125 C 2.023438 0.125 1.679688 0.0507812 1.390625 -0.09375 C 1.097656 -0.25 0.867188 -0.46875 0.703125 -0.75 C 0.546875 -1.03125 0.46875 -1.367188 0.46875 -1.765625 C 0.46875 -2.140625 0.546875 -2.453125 0.703125 -2.703125 C 0.867188 -2.953125 1.113281 -3.15625 1.4375 -3.3125 C 1.769531 -3.46875 2.203125 -3.59375 2.734375 -3.6875 C 3.109375 -3.738281 3.390625 -3.800781 3.578125 -3.875 C 3.773438 -3.945312 3.90625 -4.023438 3.96875 -4.109375 C 4.039062 -4.203125 4.078125 -4.320312 4.078125 -4.46875 C 4.078125 -4.664062 4.007812 -4.816406 3.875 -4.921875 C 3.738281 -5.023438 3.507812 -5.078125 3.1875 -5.078125 C 2.832031 -5.078125 2.5 -5 2.1875 -4.84375 C 1.875 -4.695312 1.601562 -4.492188 1.375 -4.234375 L 1.265625 -4.234375 L 0.609375 -5.21875 C 0.929688 -5.570312 1.316406 -5.847656 1.765625 -6.046875 C 2.222656 -6.242188 2.722656 -6.34375 3.265625 -6.34375 C 4.085938 -6.34375 4.679688 -6.164062 5.046875 -5.8125 C 5.410156 -5.457031 5.59375 -4.960938 5.59375 -4.328125 L 5.59375 -1.625 C 5.59375 -1.34375 5.71875 -1.203125 5.96875 -1.203125 C 6.0625 -1.203125 6.148438 -1.21875 6.234375 -1.25 L 6.328125 -1.234375 L 6.4375 -0.140625 C 6.34375 -0.0859375 6.21875 -0.0390625 6.0625 0 C 5.914062 0.03125 5.75 0.046875 5.5625 0.046875 C 5.1875 0.046875 4.894531 -0.0234375 4.6875 -0.171875 C 4.476562 -0.316406 4.332031 -0.539062 4.25 -0.84375 L 4.125 -0.84375 C 3.820312 -0.195312 3.253906 0.125 2.421875 0.125 Z M 2.921875 -1.046875 C 3.285156 -1.046875 3.570312 -1.164062 3.78125 -1.40625 C 4 -1.65625 4.109375 -1.992188 4.109375 -2.421875 L 4.109375 -3.0625 L 4 -3.078125 C 3.90625 -3.003906 3.78125 -2.941406 3.625 -2.890625 C 3.476562 -2.835938 3.265625 -2.785156 2.984375 -2.734375 C 2.640625 -2.679688 2.394531 -2.585938 2.25 -2.453125 C 2.101562 -2.316406 2.03125 -2.117188 2.03125 -1.859375 C 2.03125 -1.597656 2.109375 -1.394531 2.265625 -1.25 C 2.421875 -1.113281 2.640625 -1.046875 2.921875 -1.046875 Z M 2.921875 -1.046875 "/></g></g><g style="fill:#000000;fill-opacity:1;"><g transform="translate(35.818347, 17.744936)"><path style="stroke:none" d="M 0.890625 0 L 0.890625 -8.71875 L 2.453125 -8.71875 L 2.453125 -3.875 L 2.609375 -3.875 L 4.40625 -6.21875 L 6 -6.21875 L 6 -6.09375 L 3.875 -3.359375 L 6.234375 -0.140625 L 6.234375 0 L 4.578125 0 L 2.609375 -2.625 L 2.453125 -2.625 L 2.453125 0 Z M 0.890625 0 "/></g></g><g style="fill:#000000;fill-opacity:1;"><g transform="translate(42.062204, 17.744936)"><path style="stroke:none" d="M 4.296875 -1.484375 L 4.703125 -0.328125 C 4.523438 -0.191406 4.304688 -0.0820312 4.046875 0 C 3.796875 0.0820312 3.507812 0.125 3.1875 0.125 C 2.519531 0.125 2.007812 -0.0546875 1.65625 -0.421875 C 1.3125 -0.796875 1.140625 -1.332031 1.140625 -2.03125 L 1.140625 -4.984375 L 0.1875 -4.984375 L 0.1875 -6.21875 L 1.140625 -6.21875 L 1.140625 -7.4375 L 2.6875 -7.6875 L 2.6875 -6.21875 L 4.453125 -6.21875 L 4.453125 -4.984375 L 2.6875 -4.984375 L 2.6875 -2.140625 C 2.6875 -1.835938 2.75 -1.613281 2.875 -1.46875 C 3.007812 -1.320312 3.195312 -1.25 3.4375 -1.25 C 3.71875 -1.25 3.960938 -1.328125 4.171875 -1.484375 Z M 4.296875 -1.484375 "/></g></g><g style="fill:#000000;fill-opacity:1;"><g transform="translate(46.895976, 17.744936)"><path style="stroke:none" d="M 0.890625 0 L 0.890625 -8.71875 L 2.453125 -8.71875 L 2.453125 -5.40625 L 2.578125 -5.390625 C 2.785156 -5.691406 3.035156 -5.925781 3.328125 -6.09375 C 3.628906 -6.257812 3.992188 -6.34375 4.421875 -6.34375 C 5.796875 -6.34375 6.484375 -5.5625 6.484375 -4 L 6.484375 0 L 4.921875 0 L 4.921875 -3.8125 C 4.921875 -4.226562 4.835938 -4.53125 4.671875 -4.71875 C 4.503906 -4.914062 4.238281 -5.015625 3.875 -5.015625 C 3.4375 -5.015625 3.085938 -4.867188 2.828125 -4.578125 C 2.578125 -4.285156 2.453125 -3.832031 2.453125 -3.21875 L 2.453125 0 Z M 0.890625 0 "/></g></g><g style="fill:#000000;fill-opacity:1;"><g transform="translate(54.183296, 17.744936)"><path style="stroke:none" d="M 1.671875 -6.96875 C 1.390625 -6.96875 1.160156 -7.050781 0.984375 -7.21875 C 0.804688 -7.382812 0.71875 -7.601562 0.71875 -7.875 C 0.71875 -8.144531 0.804688 -8.363281 0.984375 -8.53125 C 1.160156 -8.707031 1.390625 -8.796875 1.671875 -8.796875 C 1.859375 -8.796875 2.023438 -8.753906 2.171875 -8.671875 C 2.316406 -8.597656 2.429688 -8.488281 2.515625 -8.34375 C 2.597656 -8.207031 2.640625 -8.050781 2.640625 -7.875 C 2.640625 -7.695312 2.597656 -7.539062 2.515625 -7.40625 C 2.429688 -7.269531 2.316406 -7.160156 2.171875 -7.078125 C 2.023438 -7.003906 1.859375 -6.96875 1.671875 -6.96875 Z M 0.890625 0 L 0.890625 -6.21875 L 2.453125 -6.21875 L 2.453125 0 Z M 0.890625 0 "/></g></g><g style="fill:#000000;fill-opacity:1;"><g transform="translate(57.533659, 17.744936)"><path style="stroke:none" d=""/></g></g><g style="fill:#000000;fill-opacity:1;"><g transform="translate(60.257943, 17.744936)"><path style="stroke:none" d="M 2.890625 0.125 C 2.191406 0.125 1.609375 -0.00390625 1.140625 -0.265625 C 0.679688 -0.535156 0.347656 -0.894531 0.140625 -1.34375 L 1.046875 -2.46875 L 1.1875 -2.46875 C 1.34375 -2.101562 1.554688 -1.816406 1.828125 -1.609375 C 2.109375 -1.398438 2.429688 -1.296875 2.796875 -1.296875 C 3.203125 -1.296875 3.503906 -1.414062 3.703125 -1.65625 C 3.910156 -1.894531 4.015625 -2.28125 4.015625 -2.8125 L 4.015625 -8.25 L 5.625 -8.25 L 5.625 -2.796875 C 5.625 -1.796875 5.398438 -1.054688 4.953125 -0.578125 C 4.503906 -0.109375 3.816406 0.125 2.890625 0.125 Z M 2.890625 0.125 "/></g></g><g style="fill:#000000;fill-opacity:1;"><g transform="translate(66.913545, 17.744936)"><path style="stroke:none" d="M 6.140625 -2.75 L 2.140625 -2.75 C 2.191406 -2.207031 2.347656 -1.8125 2.609375 -1.5625 C 2.867188 -1.320312 3.226562 -1.203125 3.6875 -1.203125 C 4.039062 -1.203125 4.328125 -1.269531 4.546875 -1.40625 C 4.773438 -1.539062 4.957031 -1.742188 5.09375 -2.015625 L 5.203125 -2.015625 L 6.25 -1.34375 C 6.039062 -0.90625 5.734375 -0.550781 5.328125 -0.28125 C 4.921875 -0.0078125 4.375 0.125 3.6875 0.125 C 3.039062 0.125 2.484375 0.00390625 2.015625 -0.234375 C 1.546875 -0.484375 1.1875 -0.847656 0.9375 -1.328125 C 0.6875 -1.816406 0.5625 -2.410156 0.5625 -3.109375 C 0.5625 -3.816406 0.691406 -4.410156 0.953125 -4.890625 C 1.222656 -5.378906 1.582031 -5.742188 2.03125 -5.984375 C 2.488281 -6.222656 3.003906 -6.34375 3.578125 -6.34375 C 4.453125 -6.34375 5.125 -6.109375 5.59375 -5.640625 C 6.0625 -5.171875 6.296875 -4.484375 6.296875 -3.578125 C 6.296875 -3.253906 6.285156 -3.003906 6.265625 -2.828125 Z M 4.796875 -3.765625 C 4.785156 -4.242188 4.675781 -4.585938 4.46875 -4.796875 C 4.269531 -5.015625 3.972656 -5.125 3.578125 -5.125 C 2.785156 -5.125 2.320312 -4.671875 2.1875 -3.765625 Z M 4.796875 -3.765625 "/></g></g><g style="fill:#000000;fill-opacity:1;"><g transform="translate(73.676314, 17.744936)"><path style="stroke:none" d="M 3.34375 0 L 1.703125 0 L 0.21875 -6.21875 L 1.671875 -6.21875 L 2.59375 -2.015625 L 2.703125 -2.015625 L 3.890625 -6.21875 L 5.25 -6.21875 L 6.46875 -2.015625 L 6.578125 -2.015625 L 7.46875 -6.21875 L 8.875 -6.21875 L 7.421875 0 L 5.78125 0 L 4.59375 -4.234375 L 4.484375 -4.234375 Z M 3.34375 0 "/></g></g><g style="fill:#000000;fill-opacity:1;"><g transform="translate(82.729054, 17.744936)"><path style="stroke:none" d="M 6.140625 -2.75 L 2.140625 -2.75 C 2.191406 -2.207031 2.347656 -1.8125 2.609375 -1.5625 C 2.867188 -1.320312 3.226562 -1.203125 3.6875 -1.203125 C 4.039062 -1.203125 4.328125 -1.269531 4.546875 -1.40625 C 4.773438 -1.539062 4.957031 -1.742188 5.09375 -2.015625 L 5.203125 -2.015625 L 6.25 -1.34375 C 6.039062 -0.90625 5.734375 -0.550781 5.328125 -0.28125 C 4.921875 -0.0078125 4.375 0.125 3.6875 0.125 C 3.039062 0.125 2.484375 0.00390625 2.015625 -0.234375 C 1.546875 -0.484375 1.1875 -0.847656 0.9375 -1.328125 C 0.6875 -1.816406 0.5625 -2.410156 0.5625 -3.109375 C 0.5625 -3.816406 0.691406 -4.410156 0.953125 -4.890625 C 1.222656 -5.378906 1.582031 -5.742188 2.03125 -5.984375 C 2.488281 -6.222656 3.003906 -6.34375 3.578125 -6.34375 C 4.453125 -6.34375 5.125 -6.109375 5.59375 -5.640625 C 6.0625 -5.171875 6.296875 -4.484375 6.296875 -3.578125 C 6.296875 -3.253906 6.285156 -3.003906 6.265625 -2.828125 Z M 4.796875 -3.765625 C 4.785156 -4.242188 4.675781 -4.585938 4.46875 -4.796875 C 4.269531 -5.015625 3.972656 -5.125 3.578125 -5.125 C 2.785156 -5.125 2.320312 -4.671875 2.1875 -3.765625 Z M 4.796875 -3.765625 "/></g></g><g style="fill:#000000;fill-opacity:1;"><g transform="translate(89.491822, 17.744936)"><path style="stroke:none" d="M 2.578125 0.125 C 2.015625 0.125 1.585938 -0.0234375 1.296875 -0.328125 C 1.003906 -0.640625 0.859375 -1.101562 0.859375 -1.71875 L 0.859375 -8.71875 L 2.421875 -8.71875 L 2.421875 -1.78125 C 2.421875 -1.394531 2.578125 -1.203125 2.890625 -1.203125 C 2.984375 -1.203125 3.082031 -1.21875 3.1875 -1.25 L 3.265625 -1.234375 L 3.40625 -0.03125 C 3.3125 0.0195312 3.191406 0.0546875 3.046875 0.078125 C 2.910156 0.109375 2.753906 0.125 2.578125 0.125 Z M 2.578125 0.125 "/></g></g><g style="fill:#000000;fill-opacity:1;"><g transform="translate(93.067798, 17.744936)"><path style="stroke:none" d="M 2.578125 0.125 C 2.015625 0.125 1.585938 -0.0234375 1.296875 -0.328125 C 1.003906 -0.640625 0.859375 -1.101562 0.859375 -1.71875 L 0.859375 -8.71875 L 2.421875 -8.71875 L 2.421875 -1.78125 C 2.421875 -1.394531 2.578125 -1.203125 2.890625 -1.203125 C 2.984375 -1.203125 3.082031 -1.21875 3.1875 -1.25 L 3.265625 -1.234375 L 3.40625 -0.03125 C 3.3125 0.0195312 3.191406 0.0546875 3.046875 0.078125 C 2.910156 0.109375 2.753906 0.125 2.578125 0.125 Z M 2.578125 0.125 "/></g></g><g style="fill:#000000;fill-opacity:1;"><g transform="translate(96.643774, 17.744936)"><path style="stroke:none" d="M 6.140625 -2.75 L 2.140625 -2.75 C 2.191406 -2.207031 2.347656 -1.8125 2.609375 -1.5625 C 2.867188 -1.320312 3.226562 -1.203125 3.6875 -1.203125 C 4.039062 -1.203125 4.328125 -1.269531 4.546875 -1.40625 C 4.773438 -1.539062 4.957031 -1.742188 5.09375 -2.015625 L 5.203125 -2.015625 L 6.25 -1.34375 C 6.039062 -0.90625 5.734375 -0.550781 5.328125 -0.28125 C 4.921875 -0.0078125 4.375 0.125 3.6875 0.125 C 3.039062 0.125 2.484375 0.00390625 2.015625 -0.234375 C 1.546875 -0.484375 1.1875 -0.847656 0.9375 -1.328125 C 0.6875 -1.816406 0.5625 -2.410156 0.5625 -3.109375 C 0.5625 -3.816406 0.691406 -4.410156 0.953125 -4.890625 C 1.222656 -5.378906 1.582031 -5.742188 2.03125 -5.984375 C 2.488281 -6.222656 3.003906 -6.34375 3.578125 -6.34375 C 4.453125 -6.34375 5.125 -6.109375 5.59375 -5.640625 C 6.0625 -5.171875 6.296875 -4.484375 6.296875 -3.578125 C 6.296875 -3.253906 6.285156 -3.003906 6.265625 -2.828125 Z M 4.796875 -3.765625 C 4.785156 -4.242188 4.675781 -4.585938 4.46875 -4.796875 C 4.269531 -5.015625 3.972656 -5.125 3.578125 -5.125 C 2.785156 -5.125 2.320312 -4.671875 2.1875 -3.765625 Z M 4.796875 -3.765625 "/></g></g><g style="fill:#000000;fill-opacity:1;"><g transform="translate(103.406543, 17.744936)"><path style="stroke:none" d="M 0.890625 0 L 0.890625 -6.21875 L 2.40625 -6.21875 L 2.40625 -5.296875 L 2.53125 -5.265625 C 2.675781 -5.617188 2.867188 -5.875 3.109375 -6.03125 C 3.359375 -6.195312 3.660156 -6.28125 4.015625 -6.28125 C 4.367188 -6.28125 4.640625 -6.21875 4.828125 -6.09375 L 4.5625 -4.75 L 4.4375 -4.71875 C 4.332031 -4.757812 4.234375 -4.789062 4.140625 -4.8125 C 4.046875 -4.832031 3.929688 -4.84375 3.796875 -4.84375 C 3.359375 -4.84375 3.023438 -4.6875 2.796875 -4.375 C 2.566406 -4.070312 2.453125 -3.582031 2.453125 -2.90625 L 2.453125 0 Z M 0.890625 0 "/></g></g><g clip-rule="nonzero" clip-path="url(#428210d878)"><g style="fill:#000000;fill-opacity:1;"><g transform="translate(108.364416, 17.744936)"><path style="stroke:none" d="M 1.375 2.640625 C 1.101562 2.640625 0.859375 2.617188 0.640625 2.578125 C 0.429688 2.535156 0.257812 2.476562 0.125 2.40625 L 0.375 1.15625 L 0.46875 1.109375 C 0.5625 1.160156 0.675781 1.203125 0.8125 1.234375 C 0.957031 1.265625 1.101562 1.28125 1.25 1.28125 C 1.5 1.28125 1.707031 1.242188 1.875 1.171875 C 2.039062 1.109375 2.179688 1 2.296875 0.84375 C 2.421875 0.695312 2.523438 0.488281 2.609375 0.21875 L 0.140625 -6.21875 L 1.765625 -6.21875 L 3.3125 -1.890625 L 3.453125 -1.890625 L 4.953125 -6.21875 L 6.546875 -6.21875 L 4.046875 0.390625 C 3.847656 0.921875 3.628906 1.347656 3.390625 1.671875 C 3.148438 2.003906 2.867188 2.25 2.546875 2.40625 C 2.222656 2.5625 1.832031 2.640625 1.375 2.640625 Z M 1.375 2.640625 "/></g></g></g></g></svg>